<svg width="182" height="48" viewBox="0 0 182 48" fill="none" xmlns="http://www.w3.org/2000/svg">
<path d="M50.9286 24.7875C50.8816 23.7965 50.5944 23.0149 50.3232 22.5125C40.9245 25.8375 33.8665 32.4 31.601 35.55C34.6508 31.7 44.4099 25.925 50.9286 24.7875Z" fill="white"/>
<path d="M32.2861 35.6375C33.8723 34.286 36.7857 32.7342 39.049 31.5551C39.3016 31.4235 39.5461 31.2965 39.7798 31.175C40.6736 30.7101 41.5899 30.2867 42.5074 29.904C46.5922 28.2004 50.702 27.3045 52.9722 27.1582C53.0194 27.1551 53.0659 27.1524 53.1115 27.15C53.1205 27.1495 53.1272 27.1491 53.1317 27.1487C53.1732 27.1451 53.0368 27.1446 52.914 27.1455C52.852 27.146 52.7935 27.1468 52.7631 27.1477C52.737 27.1484 52.7317 27.1493 52.763 27.15L52.7631 27.1477C52.7624 26.4896 52.4626 25.875 52.2402 25.3125C49.0418 25.9089 44.8845 27.289 41.9582 28.8125C38.0829 30.83 34.4182 33.6584 32.2861 35.6375Z" fill="white"/>
<path d="M32.8961 36.25C40.564 31.0875 49.8004 29.775 53.4436 29.8625C53.6143 29.1883 53.8669 28.4132 53.6443 27.85C47.9705 27.85 36.1201 32.925 32.8961 36.25Z" fill="white"/>
<path d="M5.07138 24.7875C5.11838 23.7965 5.40563 23.0149 5.67682 22.5125C15.0755 25.8375 22.1335 32.4 24.399 35.55C21.3492 31.7 11.5901 25.925 5.07138 24.7875Z" fill="white"/>
<path d="M23.1039 36.25C15.436 31.0875 6.19964 29.775 2.55643 29.8625C2.3857 29.1883 2.13307 28.4132 2.35573 27.85C8.02948 27.85 19.8799 32.925 23.1039 36.25Z" fill="white"/>
<path fill-rule="evenodd" clip-rule="evenodd" d="M14.0418 28.8125C11.2418 27.3966 6.78915 25.8774 3.75984 25.3125C6.95816 25.9089 11.1155 27.289 14.0418 28.8125Z" fill="white"/>
<path d="M3.75984 25.3125C6.78915 25.8774 11.2418 27.3966 14.0418 28.8125C17.9171 30.83 21.5818 33.6584 23.7139 35.6375C17.9375 31.875 10.9567 27.8513 3.2375 27.15C3.24203 27.1504 3.58651 27.15 3.2375 27.15C3.2375 27.15 3.56269 25.8111 3.75984 25.3125Z" fill="white"/>
<path d="M28 39.1097L28.0165 39.1375C32.199 32.4875 39.257 26.1 47.7091 22.775C47.7091 22.775 47.6055 3 28 3C8.39451 3 8.29089 22.775 8.29089 22.775C16.743 26.1 23.801 32.4875 27.9835 39.1375L28 39.1097Z" fill="#FFD147"/>
<path d="M31.601 35.55C33.8665 32.4 40.9245 25.8375 50.3232 22.5125C50.1921 22.2697 50.0528 22.092 49.9582 21.9875L47.7091 22.775C39.257 26.1 32.199 32.4875 28.0165 39.1375L28 39.1097L27.9835 39.1375C23.801 32.4875 16.743 26.1 8.29089 22.775L6.04185 21.9875C5.94721 22.092 5.8079 22.2697 5.67682 22.5125C15.0755 25.8375 22.1335 32.4 24.399 35.55C21.3492 31.7 11.5901 25.925 5.07138 24.7875C4.72284 24.7175 4.29914 24.6417 4.12487 24.6125C4.09927 24.6639 4.04945 24.7275 3.99343 24.7989C3.92241 24.8895 3.84143 25.1005 3.78719 25.2418L3.78679 25.2429C3.77682 25.2689 3.76776 25.2925 3.75984 25.3125C6.95816 25.9089 11.1155 27.289 14.0418 28.8125C18.1256 30.8776 21.5777 33.6171 23.7139 35.6375C17.9375 31.875 10.9567 27.8513 3.2375 27.15C3.2375 27.15 2.68408 27.1494 2.62445 27.1497L2.55643 27.15C2.49453 27.2654 2.40159 27.6202 2.35573 27.85C8.02948 27.85 19.8799 32.925 23.1039 36.25C15.436 31.0875 6.19964 29.775 2.55643 29.8625C1.85934 29.7925 1.30748 29.8333 1.16226 29.8625C1.13561 30.0677 1.10896 30.347 1.09478 30.65C3.7458 30.4427 7.80034 30.9046 13.2576 32.6625C17.7833 34.1203 23.5186 36.4275 28 40.3625C32.4815 36.4275 38.2167 34.1203 42.7424 32.6625C48.1997 30.9046 52.2542 30.4427 54.9052 30.65C54.891 30.347 54.8644 30.0677 54.8377 29.8625C54.6925 29.8333 54.1407 29.7925 53.4436 29.8625C49.8004 29.775 40.564 31.0875 32.8961 36.25C36.1201 32.925 47.9705 27.85 53.6443 27.85C53.5984 27.6202 53.5055 27.2654 53.4436 27.15L53.3755 27.1497L53.1317 27.1487C53.1272 27.1491 53.1205 27.1495 53.1115 27.15C53.1141 27.1843 53.0477 27.1741 52.9722 27.1582C50.702 27.3045 46.5922 28.2004 42.5074 29.904C41.602 30.2912 40.6869 30.7157 39.7798 31.175C39.5461 31.2965 39.3016 31.4235 39.049 31.5551C36.96 32.6654 33.7489 34.5457 32.2861 35.6375C34.4223 33.6171 37.8744 30.8776 41.9582 28.8125C44.8845 27.289 49.0418 25.9089 52.2402 25.3125C52.2323 25.2926 52.2233 25.2692 52.2134 25.2435L52.2128 25.2418C52.1586 25.1005 52.0776 24.8895 52.0066 24.7989C51.9506 24.7275 51.9007 24.6639 51.8751 24.6125C51.7009 24.6417 51.2772 24.7175 50.9286 24.7875C44.4099 25.925 34.6508 31.7 31.601 35.55Z" fill="#2A1C06"/>
<path d="M42.7424 32.6625C38.2167 34.1203 32.4815 36.4275 28 40.3625C23.5186 36.4275 17.7833 34.1203 13.2576 32.6625C7.80034 30.9046 3.7458 30.4427 1.09478 30.65C1.06257 31.3378 1.09458 32.1474 1.33653 32.4875L24.8466 39.1375C24.8466 39.1375 24.8466 42.55 27.9835 42.55L28 42.55L28.0165 42.55C31.1534 42.55 31.1534 39.1375 31.1534 39.1375L54.6635 32.4875C54.9054 32.1474 54.9374 31.3378 54.9052 30.65C52.2542 30.4427 48.1997 30.9046 42.7424 32.6625Z" fill="white"/>
<path d="M54.6635 32.4875L31.1534 39.1375C31.1534 39.1375 31.1534 42.55 28.0165 42.55L28 42.55L27.9835 42.55C24.8466 42.55 24.8466 39.1375 24.8466 39.1375L1.33653 32.4875C0.800649 32.3633 0.342771 32.7679 0.128955 33.275L23.6974 39.8375C23.6974 39.8375 24.1331 43.5125 27.9835 43.5125L28 43.5125L28.0165 43.5125C31.8669 43.5125 32.3026 39.8375 32.3026 39.8375L55.871 33.275C55.6572 32.7679 55.1994 32.3633 54.6635 32.4875Z" fill="#FFD147"/>
<path d="M28 45C32.7925 45 32.7925 41.0625 32.7925 41.0625C37.1227 39.8863 44.5872 37.7953 49.7587 36.3466L49.7597 36.3463C53.0513 35.4243 55.4138 34.7625 55.4477 34.7625C56.0446 34.532 56.1092 33.8399 55.871 33.275L32.3026 39.8375C32.3026 39.8375 31.8669 43.5125 28.0165 43.5125L28 43.5125L27.9835 43.5125C24.1331 43.5125 23.6974 39.8375 23.6974 39.8375L0.128955 33.275C-0.109196 33.8399 -0.044564 34.532 0.55231 34.7625C0.586195 34.7625 2.94741 35.4239 6.23759 36.3456L6.24027 36.3463L6.24134 36.3466C11.4129 37.7953 18.8773 39.8863 23.2075 41.0625C23.2075 41.0625 23.2075 45 28 45Z" fill="#2A1C06"/>
<path d="M80.2758 12.4922C80.8487 12.7526 81.1352 13.0456 81.1352 13.3711C81.1352 13.6445 81.0245 13.8919 80.8031 14.1133C80.5818 14.3216 80.3018 14.4909 79.9633 14.6211C78.7393 14.2174 77.7302 13.9635 76.9359 13.8594C76.975 14.4193 76.9945 14.9922 76.9945 15.5781C76.9945 16.3594 76.9685 17.3164 76.9164 18.4492C76.8513 19.8555 76.8187 20.8125 76.8187 21.3203L76.9359 21.9453L77.5805 21.9062C77.8018 21.8932 78.0622 21.8867 78.3617 21.8867C79.6508 21.8867 80.2953 22.2513 80.2953 22.9805C80.2953 23.2669 80.1716 23.5208 79.9242 23.7422C79.6898 23.9505 79.3904 24.0547 79.0258 24.0547C78.6352 24.0547 78.2576 24.0286 77.893 23.9766H76.8773C76.9555 24.9922 76.9945 26.0013 76.9945 27.0039C76.9945 27.9674 76.9685 29.1719 76.9164 30.6172C76.8513 32.4141 76.8187 33.625 76.8187 34.25C76.8187 35.7474 76.8448 36.4961 76.8969 36.4961L78.2055 36.4375L79.8461 36.3984C80.8617 36.3984 81.3695 36.724 81.3695 37.375C81.3695 37.7526 81.2003 38.0391 80.8617 38.2344C80.5362 38.4297 80.1326 38.5273 79.6508 38.5273H76.2719C75.9073 38.5273 75.5818 38.4036 75.2953 38.1562C75.0219 37.9219 74.8786 37.6354 74.8656 37.2969V36.2422C74.8656 35.9557 74.8591 35.6888 74.8461 35.4414L74.807 34.6016C74.807 34.1719 74.7745 33.319 74.7094 32.043C74.6443 30.7799 74.6117 29.9271 74.6117 29.4844C74.6117 28.013 74.6573 26.0664 74.7484 23.6445C74.8396 21.2227 74.8852 19.276 74.8852 17.8047C74.8852 17.5182 74.8526 16.9518 74.7875 16.1055C74.7094 15.3633 74.6703 14.8034 74.6703 14.4258C74.6703 12.5378 75.2302 11.5938 76.35 11.5938C76.8578 11.5938 77.4958 11.6784 78.2641 11.8477C79.0453 12.0039 79.7159 12.2188 80.2758 12.4922ZM91.5641 24.3086C91.6682 26.7826 91.7203 30.2591 91.7203 34.7383V35.7539H94.7672C95.3401 36.1445 95.6266 36.5417 95.6266 36.9453C95.6266 37.2448 95.5289 37.5117 95.3336 37.7461C95.1383 37.9674 94.8974 38.0781 94.6109 38.0781C94.4807 38.0781 94.344 38.0521 94.2008 38L94.0055 37.9414C93.8102 37.9935 93.5562 38.0195 93.2437 38.0195L92.5992 37.9805C92.4039 37.9674 92.1891 37.9609 91.9547 37.9609C91.6812 38.2865 91.3036 38.4492 90.8219 38.4492C90.4703 38.4492 90.1578 38.319 89.8844 38.0586C89.6109 37.8112 89.4742 37.5182 89.4742 37.1797C89.4742 36.9453 89.5198 36.6458 89.6109 36.2812C89.6891 35.9036 89.7281 35.6172 89.7281 35.4219C89.7281 32.5443 89.5979 27.9935 89.3375 21.7695C89.0641 15.7148 88.9273 11.1706 88.9273 8.13672C88.9273 7.90234 89.0185 7.70703 89.2008 7.55078C89.3961 7.39453 89.6305 7.31641 89.9039 7.31641C90.2294 7.31641 90.5094 7.43359 90.7437 7.66797C90.9911 7.88932 91.1148 8.15625 91.1148 8.46875C91.1148 9.91406 91.1865 12.3164 91.3297 15.6758C91.4599 18.7227 91.525 21.1185 91.525 22.8633L91.5641 23.3516C91.5771 23.4948 91.5836 23.6576 91.5836 23.8398C91.5836 23.9961 91.5771 24.0938 91.5641 24.1328V24.3086ZM106.212 28.957C106.277 31.0664 106.309 32.4792 106.309 33.1953V34.3867V34.9531C106.296 35.1224 106.29 35.3047 106.29 35.5H106.817C106.999 35.5 107.175 35.4935 107.345 35.4805C107.514 35.4674 107.722 35.4609 107.97 35.4609C109.063 35.4609 109.61 35.793 109.61 36.457C109.61 36.7956 109.473 37.0885 109.2 37.3359C108.94 37.5703 108.634 37.6875 108.282 37.6875H106.524C105.274 37.6875 104.499 37.6615 104.2 37.6094L103.712 37.6484C102.761 37.6484 102.286 37.349 102.286 36.75C102.286 36.5156 102.364 36.2878 102.52 36.0664C102.677 35.832 102.833 35.7083 102.989 35.6953H104.122L104.161 35.4414L104.2 35.168C104.2 34.1003 104.154 32.681 104.063 30.9102C103.972 29.1393 103.927 27.7266 103.927 26.6719C103.927 25.6693 103.966 24.1849 104.044 22.2188C104.109 20.0312 104.141 18.5469 104.141 17.7656C104.141 16.1901 104.076 14.7578 103.946 13.4688H103.184C103.028 13.4688 102.878 13.4753 102.735 13.4883C102.592 13.5013 102.436 13.5078 102.266 13.5078C101.85 13.5078 101.537 13.4297 101.329 13.2734C101.121 13.1172 101.016 12.8372 101.016 12.4336C101.016 11.8216 101.674 11.5156 102.989 11.5156H107.755C108.328 11.5156 108.738 11.5938 108.985 11.75C109.246 11.9323 109.376 12.1341 109.376 12.3555C109.376 12.6029 109.259 12.8307 109.024 13.0391C108.79 13.2474 108.523 13.3516 108.223 13.3516H106.173C106.277 14.5234 106.329 15.7604 106.329 17.0625C106.329 17.7135 106.296 18.9831 106.231 20.8711C106.153 22.5638 106.114 23.8398 106.114 24.6992C106.114 25.4284 106.147 26.8477 106.212 28.957ZM123.555 21.5352C123.307 22.4987 122.891 23.3971 122.305 24.2305C123.021 24.9206 123.509 25.806 123.77 26.8867C124.03 27.9544 124.16 29.3151 124.16 30.9688C124.16 32.6224 123.88 34.0352 123.32 35.207C122.682 36.5482 121.751 37.4727 120.527 37.9805C119.85 38.2539 119.095 38.3906 118.262 38.3906C117.689 38.3906 117.331 38.1432 117.188 37.6484C117.109 37.4271 117.057 37.2253 117.031 37.043C117.018 36.8607 117.012 36.6068 117.012 36.2812C117.012 35.2526 117.077 33.8333 117.207 32.0234C117.337 30.2135 117.402 28.7943 117.402 27.7656C117.402 26.6849 117.435 24.569 117.5 21.418C117.552 18.918 117.578 16.8086 117.578 15.0898C117.578 14.8945 117.546 14.5365 117.48 14.0156L117.363 13.0195V12.8047C117.363 12.2057 117.454 11.7565 117.637 11.457C117.832 11.1445 118.177 10.9883 118.672 10.9883C119.583 10.9883 120.384 11.1771 121.074 11.5547C121.777 11.9193 122.331 12.4401 122.734 13.1172C123.529 14.4323 123.926 16.0339 123.926 17.9219C123.926 19.3672 123.802 20.5716 123.555 21.5352ZM120 12.8438C119.688 13.5208 119.531 14.9531 119.531 17.1406V23.0977C120.938 23.0586 121.641 21.4375 121.641 18.2344C121.641 14.7708 121.094 12.974 120 12.8438ZM119.59 25.4414C119.473 27.1602 119.414 29.1784 119.414 31.4961C119.414 31.8737 119.395 32.375 119.355 33C119.303 33.5729 119.277 34.0286 119.277 34.3672C119.277 34.4062 119.284 34.4388 119.297 34.4648C119.31 34.4909 119.316 34.5234 119.316 34.5625V36.3594C120.176 36.1641 120.84 35.6562 121.309 34.8359C121.777 34.0026 122.012 33.0521 122.012 31.9844C122.012 31.3854 121.999 30.8906 121.973 30.5C121.96 30.0964 121.908 29.6146 121.816 29.0547C121.712 28.4036 121.576 27.8503 121.406 27.3945C121.237 26.9258 121.003 26.5091 120.703 26.1445C120.391 25.7669 120.02 25.5326 119.59 25.4414ZM138.866 38.3906C138.697 38.5859 138.482 38.6836 138.222 38.6836C137.662 38.6836 137.128 38.0391 136.62 36.75C136.112 35.513 135.696 34.0938 135.37 32.4922L135.097 31.1445C134.355 27.3555 133.866 25.1745 133.632 24.6016H133.144C133.144 25.3828 133.137 26.0924 133.124 26.7305C133.111 27.3685 133.105 28.1042 133.105 28.9375C133.105 32.4661 133.359 35.2461 133.866 37.2773L133.417 38.3516H132.304L131.777 37.7656L131.816 35.0898C131.816 32.8372 131.705 29.1979 131.484 24.1719C131.249 19.2891 131.132 15.6432 131.132 13.2344C131.132 11.9714 131.575 11.3398 132.46 11.3398C133.398 11.3398 134.237 11.5091 134.98 11.8477C135.735 12.1732 136.327 12.6549 136.757 13.293C137.187 13.918 137.402 14.6732 137.402 15.5586V18.3711C137.402 18.7487 137.33 19.1914 137.187 19.6992C137.043 20.207 136.894 20.6432 136.737 21.0078L135.976 22.4531L135.351 23.625L136.112 27.4336C136.477 29.4258 136.835 31.0729 137.187 32.375C137.538 33.6641 137.961 34.8424 138.456 35.9102L138.71 36.418C138.853 36.6914 138.958 36.9258 139.023 37.1211C139.088 37.3034 139.12 37.4857 139.12 37.668C139.12 37.9544 139.036 38.1953 138.866 38.3906ZM135.136 18.8984C135.318 18.013 135.409 17.2318 135.409 16.5547C135.409 16.0599 135.39 15.6432 135.351 15.3047C135.312 14.9531 135.234 14.569 135.116 14.1523C134.986 13.7357 134.765 13.4167 134.452 13.1953C134.153 12.9609 133.769 12.8372 133.3 12.8242L133.241 13.0586C133.189 13.2018 133.163 13.3125 133.163 13.3906C133.163 14.7188 133.189 16.2943 133.241 18.1172C133.293 19.9531 133.32 21.457 133.32 22.6289C133.71 22.4206 134.062 21.9648 134.374 21.2617C134.7 20.5586 134.954 19.7708 135.136 18.8984ZM155.662 18.8594C155.819 19.9531 155.897 21.138 155.897 22.4141V22.707L155.936 24.9727L155.975 27.2383C155.975 34.9076 154.198 38.7422 150.643 38.7422C149.927 38.7422 149.276 38.5273 148.69 38.0977C148.104 37.668 147.635 37.069 147.284 36.3008C146.528 34.7253 146.04 32.9544 145.819 30.9883C145.597 29.1654 145.487 27.4271 145.487 25.7734C145.487 25.4479 145.493 25.181 145.506 24.9727C145.519 24.7643 145.526 24.5234 145.526 24.25C145.526 24.1198 145.506 24.0547 145.467 24.0547V23.332C145.467 23.1237 145.48 22.5508 145.506 21.6133C145.506 21.1966 145.513 20.8385 145.526 20.5391C145.539 19.8229 145.565 19.1849 145.604 18.625C145.656 18.0651 145.734 17.3359 145.838 16.4375C145.916 15.7083 146.027 15.0638 146.17 14.5039C146.314 13.931 146.502 13.3385 146.737 12.7266C146.932 12.1927 147.179 11.7891 147.479 11.5156C147.778 11.2292 148.11 11.0859 148.475 11.0859C149.543 11.0859 150.506 11.2812 151.366 11.6719C152.225 12.0625 152.941 12.6029 153.514 13.293C154.048 13.957 154.497 14.7708 154.862 15.7344C155.239 16.6979 155.506 17.7396 155.662 18.8594ZM151.659 13.7422C151.164 13.3906 150.61 13.2148 149.998 13.2148C149.087 13.2148 148.482 13.7292 148.182 14.7578C148.039 15.2396 147.941 15.7279 147.889 16.2227C147.837 16.7044 147.811 17.2773 147.811 17.9414C147.811 18.4492 147.817 18.8789 147.83 19.2305C147.843 19.582 147.85 19.9401 147.85 20.3047C147.85 20.6302 147.817 21.2487 147.752 22.1602C147.687 23.0716 147.655 23.6836 147.655 23.9961C147.655 24.9596 147.707 26.3854 147.811 28.2734C147.915 30.2786 148.176 32.2253 148.592 34.1133C148.787 35.0378 149.048 35.7669 149.373 36.3008C149.712 36.8216 150.083 37.082 150.487 37.082C150.955 37.082 151.385 36.8932 151.776 36.5156C152.179 36.125 152.498 35.5911 152.733 34.9141C153.202 33.5729 153.508 32.1146 153.651 30.5391C153.768 29.1328 153.827 27.9479 153.827 26.9844C153.827 25.8516 153.742 24.2891 153.573 22.2969C153.39 20.1484 153.299 18.6055 153.299 17.668V16.9648C153.273 16.3138 153.117 15.7018 152.83 15.1289C152.544 14.543 152.153 14.0807 151.659 13.7422ZM166.13 14.6992C165.857 15.5716 165.72 16.3398 165.72 17.0039C165.72 17.7721 165.831 18.5534 166.052 19.3477C166.287 20.1419 166.593 20.8581 166.97 21.4961C167.947 23.2279 168.715 24.6406 169.275 25.7344C169.64 26.4635 169.933 27.3229 170.154 28.3125C170.388 29.3021 170.505 30.3047 170.505 31.3203C170.505 32.9349 170.134 34.4779 169.392 35.9492C169.015 36.7044 168.487 37.3099 167.81 37.7656C167.133 38.2083 166.378 38.4362 165.545 38.4492V38.5469C165.05 38.4688 164.64 38.293 164.314 38.0195C163.989 37.7591 163.8 37.4206 163.748 37.0039L164.197 36.3203C164.588 36.3984 164.835 36.4505 164.939 36.4766C165.304 36.5677 165.61 36.6133 165.857 36.6133C166.352 36.6133 166.788 36.3984 167.166 35.9688C167.543 35.5391 167.83 34.9792 168.025 34.2891C168.377 33.026 168.552 31.8737 168.552 30.832C168.552 29.9466 168.396 29.0286 168.084 28.0781C167.784 27.1146 167.38 26.1836 166.873 25.2852L166.502 24.6406C165.955 23.7031 165.505 22.8893 165.154 22.1992C164.802 21.4961 164.503 20.7409 164.255 19.9336C163.93 18.918 163.767 17.8698 163.767 16.7891C163.767 15.5781 164.041 14.3607 164.588 13.1367C164.861 12.4987 165.239 11.9909 165.72 11.6133C166.215 11.2227 166.768 11.0273 167.38 11.0273C167.875 11.0273 168.324 11.1836 168.728 11.4961C169.145 11.7956 169.353 12.1667 169.353 12.6094C169.353 12.8438 169.255 13.0326 169.06 13.1758C168.865 13.306 168.637 13.3711 168.377 13.3711C168.09 13.3711 167.81 13.293 167.537 13.1367C167.237 13.1497 166.964 13.2995 166.716 13.5859C166.469 13.8724 166.274 14.2435 166.13 14.6992Z" fill="#FFD147"/>
</svg>
